<svg width="141" height="130" fill="none" xmlns="http://www.w3.org/2000/svg"><path fill-rule="evenodd" clip-rule="evenodd" d="M47.496 23.903v1.783h4.248a3.748 3.748 0 01-.983 2.25 4.329 4.329 0 01-3.275 1.307c-2.579-.039-4.65-2.156-4.65-4.755 0-2.6 2.071-4.717 4.65-4.756a4.505 4.505 0 013.215 1.278l1.25-1.258a6.16 6.16 0 00-4.455-1.852 6.488 6.488 0 00-5.834 3.198 6.591 6.591 0 000 6.691 6.488 6.488 0 005.834 3.198 5.876 5.876 0 004.533-1.833 5.971 5.971 0 001.533-4.18 5.85 5.85 0 00-.098-1.12l-5.968.049zM58.4 22.605c-2.307.006-4.173 1.894-4.169 4.218.004 2.324 1.876 4.205 4.182 4.203 2.307-.002 4.176-1.886 4.176-4.21a4.167 4.167 0 00-1.214-3.003 4.104 4.104 0 00-2.986-1.208h.01zm4.994 4.224c-.007-2.323 1.854-4.213 4.16-4.224a4.104 4.104 0 012.985 1.208 4.168 4.168 0 011.213 3.003c0 2.322-1.867 4.206-4.172 4.21-2.305.004-4.178-1.874-4.186-4.197zm1.694 1.096a2.534 2.534 0 002.466 1.448 2.41 2.41 0 001.715-.777 2.448 2.448 0 00.645-1.78 2.555 2.555 0 00-1.612-2.373 2.523 2.523 0 00-2.782.64 2.57 2.57 0 00-.432 2.842zm-9.16.007a2.534 2.534 0 002.472 1.44h-.01a2.41 2.41 0 001.715-.776 2.447 2.447 0 00.645-1.78 2.555 2.555 0 00-1.614-2.373 2.524 2.524 0 00-2.783.644 2.57 2.57 0 00-.425 2.845zm32.54-5.326a3.937 3.937 0 013.579 2.684l.206.446-5.595 2.328a2.123 2.123 0 002.026 1.278 2.385 2.385 0 002.055-1.168l1.426.99a4.15 4.15 0 01-3.481 1.863 4.074 4.074 0 01-2.963-1.217 4.137 4.137 0 01-1.187-2.993 3.981 3.981 0 011.062-2.964 3.92 3.92 0 012.872-1.247zm-2.125 4.09a2.32 2.32 0 01.58-1.69c.41-.462.988-.738 1.603-.766a1.623 1.623 0 011.554.892l-3.736 1.565h-.001zM83.64 30.78h-1.839V18.395h1.839v12.384zm-4.848-7.232h-.069a2.94 2.94 0 00-2.202-.991c-2.23.112-3.98 1.966-3.98 4.215 0 2.25 1.75 4.104 3.98 4.216a2.841 2.841 0 002.202-.991h.059v.605c0 1.615-.856 2.477-2.232 2.477a2.312 2.312 0 01-2.104-1.497l-1.602.674a3.982 3.982 0 003.706 2.487c2.154 0 3.933-1.278 3.933-4.39v-7.498h-1.69v.693zm-2.107 5.825h.004-.01.006zm1.657-.794a2.334 2.334 0 01-1.657.794 2.559 2.559 0 01-2.319-2.556 2.559 2.559 0 012.323-2.556c.635.033 1.23.323 1.65.804.42.481.63 1.113.581 1.752a2.37 2.37 0 01-.578 1.762zm22.318-10.183h-4.396V30.78h1.84v-4.696h2.566a3.817 3.817 0 003.535-1.84 3.879 3.879 0 000-4.008 3.817 3.817 0 00-3.535-1.84h-.01zm-2.566 5.944h2.566l.039.03c1.165 0 2.11-.951 2.11-2.125a2.118 2.118 0 00-2.11-2.125h-2.605v4.22zm13.903-1.783a3.437 3.437 0 00-3.274 1.892l1.631.684c.33-.61.986-.968 1.672-.912a1.76 1.76 0 011.316.382c.37.3.605.738.651 1.214v.128a4.036 4.036 0 00-1.918-.476c-1.759 0-3.539.99-3.539 2.785a2.87 2.87 0 00.953 2.01 2.83 2.83 0 002.095.714 2.58 2.58 0 002.36-1.19h.059v.992h1.769v-4.765c0-2.17-1.631-3.429-3.726-3.429l-.049-.03zm-1.661 5.736c0 .744.835 1.05 1.435 1.05l.049.03a2.228 2.228 0 002.153-1.982 3.243 3.243 0 00-1.671-.415c-.925 0-1.966.326-1.966 1.317zm11.886-5.438l-2.104 5.368h-.058l-2.184-5.368h-1.966l3.274 7.51-1.868 4.17h1.917l5.035-11.68h-2.046zm-14.688 7.925h-1.839V18.395h1.839v12.384z" fill="#fff"/><path d="M10.855 8.786c-.3.365-.443.834-.4 1.306v19.815a1.79 1.79 0 00.417 1.261l.063.064 11.2-11.097v-.261L10.916 8.724l-.062.062z" fill="#5BC9F4"/><path d="M25.86 23.846l-3.743-3.72v-.26l3.743-3.712.081.045 4.449 2.504c1.27.712 1.27 1.882 0 2.603l-4.43 2.503-.1.037z" fill="url(#paint0_linear)"/><path d="M25.96 23.8L22.134 20 10.853 31.214a1.484 1.484 0 001.885.053l13.23-7.466" fill="url(#paint1_linear)"/><path d="M25.96 16.2L12.73 8.732a1.484 1.484 0 00-1.885.053L22.135 20l3.824-3.8z" fill="url(#paint2_linear)"/><path d="M48.222 16.743h-.933V15h-5.102v1.748h-.938l-.005-2.515h.581c.306-.345.549-.807.728-1.386a8.244 8.244 0 00.342-1.914l.156-3.042h4.253v6.342h.927l-.01 2.51zm-5.328-2.51h3.467v-5.57h-2.407l-.102 2.089c-.043.817-.152 1.514-.328 2.09-.172.576-.382 1.04-.63 1.391zm6.07-1.923c0-.518.1-.984.303-1.397a2.3 2.3 0 01.85-.957 2.318 2.318 0 011.244-.337c.72 0 1.3.25 1.744.747.446.498.668 1.16.668 1.988v.063c0 .514-.099.977-.297 1.387a2.225 2.225 0 01-.845.952 2.328 2.328 0 01-1.26.342c-.716 0-1.297-.25-1.743-.747-.443-.499-.664-1.158-.664-1.978v-.063zm.908.107c0 .586.135 1.056.405 1.411.274.355.638.532 1.094.532.46 0 .824-.179 1.094-.537.27-.361.405-.866.405-1.513 0-.58-.138-1.049-.415-1.407a1.303 1.303 0 00-1.094-.542c-.446 0-.805.178-1.079.533-.273.354-.41.862-.41 1.523zm7.153 1.943c.323 0 .604-.097.845-.293.241-.195.375-.44.4-.732h.855c-.016.303-.12.59-.313.864a2.052 2.052 0 01-.771.655 2.204 2.204 0 01-1.016.244c-.719 0-1.292-.24-1.718-.718-.424-.482-.635-1.14-.635-1.973v-.151c0-.514.094-.972.283-1.372.189-.4.46-.712.81-.933.355-.221.774-.332 1.255-.332.593 0 1.084.178 1.475.532.394.355.604.816.63 1.382h-.855a1.23 1.23 0 00-.39-.84 1.194 1.194 0 00-.86-.332c-.459 0-.815.166-1.069.498-.25.33-.376.806-.376 1.431v.17c0 .61.125 1.078.376 1.407.25.329.609.493 1.074.493zm7.041-3.91h-1.772V15h-.903v-4.55h-1.739v-.733h4.414v.732zm2.666 3.227l1.23-3.96h.968l-2.124 6.098c-.33.88-.852 1.319-1.568 1.319l-.17-.015-.337-.063v-.733l.244.02c.306 0 .543-.062.713-.186.172-.123.314-.35.424-.678l.2-.538-1.884-5.224h.986l1.318 3.96zM74.061 15h-.903v-4.536h-2.431V15h-.909V9.717h4.243V15zm5.767 0h-.903v-2.256h-2.427V15h-.908V9.717h.908v2.29h2.427v-2.29h.903V15zm1.216-2.69c0-.518.1-.984.303-1.397a2.3 2.3 0 01.85-.957 2.318 2.318 0 011.244-.337c.72 0 1.3.25 1.744.747.445.498.668 1.16.668 1.988v.063c0 .514-.099.977-.297 1.387a2.225 2.225 0 01-.845.952 2.327 2.327 0 01-1.26.342c-.716 0-1.297-.25-1.743-.747-.443-.499-.664-1.158-.664-1.978v-.063zm.908.107c0 .586.135 1.056.405 1.411.274.355.638.532 1.094.532.46 0 .824-.179 1.094-.537.27-.361.405-.866.405-1.513 0-.58-.138-1.049-.415-1.407a1.303 1.303 0 00-1.094-.542c-.446 0-.805.178-1.079.533-.273.354-.41.862-.41 1.523zM89.55 15V9.717h2.06c.704 0 1.242.123 1.617.37.377.245.566.605.566 1.08 0 .244-.073.466-.22.664-.146.195-.363.345-.65.45.32.074.575.22.767.439.196.218.293.478.293.781 0 .485-.179.856-.537 1.113-.355.257-.858.386-1.508.386H89.55zm.903-2.32v1.593h1.494c.378 0 .66-.07.845-.21a.693.693 0 00.283-.591c0-.528-.387-.791-1.162-.791h-1.46zm0-.722h1.167c.846 0 1.27-.247 1.27-.742s-.4-.75-1.201-.767h-1.236v1.509z" fill="#fff"/><path fill-rule="evenodd" clip-rule="evenodd" d="M21.281 56.2c1.424.106 2.886-.724 3.799-1.81.875-1.104 1.475-2.604 1.308-4.127-1.267.057-2.851.883-3.764 1.962-.808.95-1.529 2.509-1.343 3.975zm10.43 12.957c-.041-.015-3.392-1.303-3.426-5.202-.029-3.228 2.603-4.811 2.762-4.907l.003-.002c-1.512-2.223-3.858-2.527-4.683-2.551-1.206-.128-2.39.346-3.356.732-.614.246-1.14.456-1.53.456-.443 0-.984-.22-1.591-.465-.794-.321-1.699-.688-2.642-.668-2.144.033-4.15 1.284-5.25 3.225-2.27 3.959-.577 9.778 1.598 12.978 1.088 1.567 2.36 3.317 4.023 3.255.754-.03 1.29-.258 1.843-.492.64-.272 1.303-.553 2.356-.553.994 0 1.63.273 2.239.534.584.25 1.145.491 1.975.472 1.747-.028 2.848-1.574 3.896-3.156 1.258-1.796 1.762-3.566 1.783-3.656zm48.269 5.705c.683-.619 1.022-1.421 1.022-2.406 0-.801-.232-1.472-.698-2.009-.467-.538-1.195-1.008-2.184-1.408-.808-.322-1.366-.62-1.672-.895a1.42 1.42 0 01-.528-1.135c0-.413.154-.762.46-1.05.363-.32.87-.48 1.518-.48.82 0 1.553.178 2.2.532l.46-1.512c-.693-.368-1.562-.55-2.61-.55-1.172 0-2.11.303-2.815.912-.705.607-1.058 1.388-1.058 2.34 0 1.459 1.006 2.567 3.02 3.323.74.276 1.269.575 1.586.897.319.32.478.717.478 1.187 0 .528-.193.95-.58 1.266-.388.315-.927.473-1.62.473a5.022 5.022 0 01-2.665-.74l-.426 1.548c.75.482 1.743.722 2.98.722 1.34 0 2.384-.338 3.133-1.015zm-28.7.843h-1.962l-1.076-3.403h-3.736l-1.023 3.403h-1.911l3.702-11.587h2.286l3.72 11.587zm-3.36-4.831l-.972-3.026c-.105-.31-.297-1.037-.581-2.183h-.034a83.477 83.477 0 01-.547 2.183l-.955 3.026h3.088zm11.738 3.92c.761-.825 1.143-1.948 1.143-3.369 0-1.272-.327-2.299-.982-3.078-.653-.779-1.47-1.168-2.448-1.168-1.252 0-2.184.498-2.798 1.496h-.034l-.104-1.325h-1.62c.045.94.069 1.856.069 2.75v9.01h1.842v-4.402h.034c.479.79 1.263 1.186 2.355 1.186 1.012 0 1.86-.367 2.543-1.1zm-.733-3.302c0-.812-.182-1.484-.547-2.01-.399-.55-.934-.826-1.603-.826-.456 0-.868.153-1.237.455-.37.306-.613.703-.725 1.196a2.4 2.4 0 00-.086.565v1.394c0 .608.185 1.12.555 1.54.37.418.85.626 1.441.626.694 0 1.233-.27 1.62-.807.387-.539.581-1.25.581-2.133zm10.269 3.301c.764-.824 1.144-1.947 1.144-3.368 0-1.272-.327-2.299-.98-3.078-.655-.779-1.47-1.168-2.449-1.168-1.251 0-2.184.498-2.797 1.496h-.035l-.103-1.325h-1.62c.045.94.068 1.856.068 2.75v9.01h1.842v-4.402h.035c.477.79 1.261 1.186 2.354 1.186 1.011 0 1.86-.367 2.541-1.1zm-.732-3.3c0-.813-.183-1.485-.548-2.011-.398-.55-.93-.826-1.602-.826-.456 0-.867.153-1.238.455-.37.306-.61.703-.724 1.196-.05.185-.079.374-.086.565v1.394c0 .608.185 1.12.554 1.54.37.417.85.626 1.443.626.693 0 1.233-.27 1.62-.807.386-.539.58-1.25.58-2.133zm18.631-2.75h-2.03V72.8c0 1.031.358 1.547 1.075 1.547.33 0 .602-.03.818-.086l.051 1.41c-.363.136-.84.205-1.433.205-.727 0-1.295-.224-1.706-.67-.41-.448-.615-1.199-.615-2.254v-4.21h-1.21v-1.395h1.21v-1.53l1.81-.55v2.08h2.03v1.396zm8.07 5.879c.728-.824 1.094-1.879 1.094-3.163 0-1.25-.354-2.27-1.06-3.06-.74-.813-1.718-1.22-2.934-1.22-1.264 0-2.267.412-3.011 1.239-.746.824-1.118 1.884-1.118 3.179 0 1.238.361 2.264 1.083 3.078.723.812 1.692 1.219 2.909 1.219 1.262 0 2.275-.424 3.038-1.272zm-.818-3.103c0-.77-.163-1.432-.495-1.982-.386-.668-.938-1-1.653-1-.742 0-1.304.333-1.69 1-.33.551-.495 1.223-.495 2.016 0 .771.164 1.432.495 1.983.397.666.955 1 1.673 1 .703 0 1.256-.34 1.654-1.018.34-.561.51-1.23.51-2zm7.899-2.537h.001-.001zm0 0a3.186 3.186 0 00-.58-.05c-.648 0-1.149.246-1.502.74-.306.434-.46.985-.46 1.649v4.384H97.86l.017-5.724c0-.963-.023-1.84-.07-2.63h1.605l.069 1.598h.05a2.86 2.86 0 01.921-1.323c.385-.29.852-.447 1.332-.447.17 0 .324.011.46.034v1.769zm8.24 2.15a4.3 4.3 0 01-.067.843h-5.527c.021.825.288 1.455.801 1.891.466.39 1.069.584 1.808.584.819 0 1.566-.131 2.237-.395l.289 1.289c-.785.344-1.712.516-2.78.516-1.286 0-2.295-.381-3.03-1.143-.733-.763-1.1-1.786-1.1-3.069 0-1.26.342-2.308 1.024-3.145.716-.894 1.683-1.34 2.9-1.34 1.195 0 2.1.446 2.714 1.34.487.71.731 1.587.731 2.63zm-2.114-1.908c.25.401.37.877.357 1.426h-3.837c.056-.56.238-1.043.545-1.444.374-.504.864-.757 1.466-.757.66 0 1.15.26 1.469.775z" fill="#fff"/><path d="M46.473 54.8c0-.378-.139-.677-.415-.899-.274-.224-.66-.337-1.158-.337-.416 0-.766.116-1.05.347-.28.228-.42.511-.42.85h-.937c0-.378.103-.716.308-1.016.208-.3.498-.532.869-.698a2.93 2.93 0 011.23-.254c.795 0 1.412.179 1.851.537.44.355.66.85.66 1.485 0 .328-.102.628-.304.898-.201.27-.483.483-.844.64.836.28 1.255.834 1.255 1.665 0 .638-.238 1.144-.713 1.518-.476.374-1.11.562-1.905.562a3.24 3.24 0 01-1.289-.25 2.088 2.088 0 01-.898-.717c-.215-.31-.322-.677-.322-1.104h.937c0 .375.148.687.444.938.297.247.673.37 1.128.37.511 0 .918-.118 1.221-.355.306-.238.46-.552.46-.943 0-.833-.517-1.258-1.549-1.274h-.879v-.772h.874c.476-.01.835-.117 1.08-.322.244-.205.366-.495.366-.87zm5.41 5.2c-.052-.104-.095-.29-.127-.557-.42.437-.921.655-1.504.655-.52 0-.949-.147-1.284-.44a1.44 1.44 0 01-.498-1.123c0-.55.208-.976.625-1.28.42-.305 1.009-.458 1.767-.458h.88v-.415c0-.316-.095-.567-.284-.752-.189-.189-.467-.283-.835-.283-.322 0-.592.081-.81.244-.219.163-.328.36-.328.59h-.908c0-.263.093-.517.279-.761.188-.248.442-.443.761-.586a2.58 2.58 0 011.06-.215c.608 0 1.085.153 1.43.46.346.302.525.72.538 1.254v2.432c0 .485.061.87.185 1.157V60h-.947zm-1.5-.688c.284 0 .552-.074.806-.22a1.33 1.33 0 00.552-.572v-1.084h-.708c-1.107 0-1.66.324-1.66.972 0 .283.094.505.283.664.19.16.432.24.728.24zm7.091-3.848h-2.437V60h-.908v-5.283h3.345v.747zm5.249 1.953c0 .804-.184 1.452-.552 1.943-.368.492-.866.738-1.494.738-.642 0-1.146-.204-1.514-.61v2.543h-.903v-7.314h.825l.044.586c.368-.456.879-.684 1.533-.684.635 0 1.136.24 1.504.718.371.478.557 1.144.557 1.997v.083zm-.904-.102c0-.596-.127-1.067-.38-1.412-.254-.345-.603-.517-1.045-.517-.547 0-.957.242-1.23.727v2.525c.27.482.683.722 1.24.722.432 0 .776-.17 1.03-.512.257-.345.385-.856.385-1.533zm3.726 1.362l1.23-3.96h.967l-2.124 6.098c-.329.88-.851 1.319-1.567 1.319l-.171-.015-.337-.063v-.733l.244.02c.306 0 .544-.062.713-.186.172-.123.314-.35.425-.678l.2-.538-1.885-5.224h.987l1.318 3.96zm5.913-2.515a.696.696 0 00-.283-.586c-.189-.146-.448-.22-.777-.22-.319 0-.585.084-.8.25-.212.166-.318.36-.318.585h-.898c0-.459.192-.835.576-1.128.384-.293.864-.439 1.44-.439.619 0 1.1.133 1.446.4.345.264.517.642.517 1.133 0 .238-.071.456-.215.655a1.463 1.463 0 01-.61.473c.615.209.923.619.923 1.23 0 .486-.187.87-.562 1.153-.374.283-.874.425-1.499.425-.608 0-1.111-.148-1.508-.445-.394-.299-.591-.703-.591-1.21h.898c0 .257.114.478.342.664.231.182.518.273.86.273.344 0 .623-.08.834-.24a.742.742 0 00.318-.62c0-.296-.09-.507-.269-.634-.176-.13-.45-.196-.825-.196h-.903v-.761h.981c.615-.016.923-.27.923-.762zm5.591-1.445h.903V60h-.903v-3.852L74.612 60h-.903v-5.283h.903v3.857l2.437-3.857zm6.279.733h-1.772V60h-.904v-4.55h-1.738v-.733h4.414v.732zm2.681 4.648c-.716 0-1.299-.235-1.748-.703-.45-.473-.674-1.102-.674-1.89v-.166c0-.524.1-.991.298-1.401.202-.414.481-.736.84-.967a2.113 2.113 0 011.172-.352c.686 0 1.22.226 1.601.679.38.452.571 1.1.571 1.943v.376H84.49c.013.521.165.943.454 1.265.293.319.664.478 1.114.478.319 0 .589-.065.81-.195.222-.13.415-.303.581-.517l.552.43c-.443.68-1.107 1.02-1.992 1.02zm-.112-4.737c-.365 0-.671.134-.919.4-.247.264-.4.636-.459 1.114h2.647v-.068c-.026-.46-.15-.814-.371-1.065-.221-.254-.52-.38-.898-.38zM91.683 60v-5.283h2.06c.703 0 1.242.123 1.616.37.378.245.567.605.567 1.08 0 .244-.073.465-.22.664-.146.195-.363.345-.65.45.32.074.575.22.767.439.196.218.293.478.293.781 0 .485-.179.856-.537 1.113-.355.257-.858.386-1.509.386h-2.387zm.903-2.32v1.593h1.494c.378 0 .66-.07.845-.21a.693.693 0 00.283-.591c0-.528-.387-.791-1.162-.791h-1.46zm0-.722h1.167c.846 0 1.27-.247 1.27-.742s-.4-.75-1.202-.767h-1.235v1.509zM81.36 109.493l-.484 1.448c-.595-.189-1.172-.407-1.763-.551-.932-.225-1.863-.21-2.772.137-.976.373-1.652 1.06-2.01 2.028a5.713 5.713 0 00.036 4.189c.466 1.182 1.382 1.833 2.64 1.988.897.111 1.777-.004 2.63-.288.06-.019.141-.096.141-.148.007-.702.004-1.404 0-2.102 0-.011-.007-.022-.022-.056h-2.584v-1.522h4.502c.004.06.007.119.007.178 0 1.477-.003 2.951.004 4.429 0 .144-.052.203-.174.255-1.186.506-2.417.809-3.71.85-1.046.033-2.059-.1-3.009-.551-1.26-.602-2.095-1.592-2.52-2.911a7.223 7.223 0 01-.041-4.403c.566-1.855 1.83-3.037 3.696-3.536 1.8-.48 3.555-.277 5.252.473.055.022.107.056.18.093zm-27.9 10.68c-.688 0-1.346-.004-2.004.004-.118 0-.14-.067-.174-.148-.343-.913-.687-1.825-1.023-2.738-.041-.114-.096-.144-.211-.144a738.4 738.4 0 01-4.21 0c-.13 0-.177.041-.218.159-.332.916-.672 1.829-1.005 2.745-.03.085-.063.129-.166.129-.621-.003-1.242-.003-1.9-.003.103-.27.2-.525.3-.776 1.356-3.458 2.716-6.916 4.068-10.377.06-.148.126-.207.292-.204.51.012 1.024.008 1.534 0 .126 0 .185.037.23.152.776 1.947 1.56 3.89 2.339 5.837l2.055 5.124.092.24zM47.922 111c-.54 1.493-1.09 3.026-1.645 4.559H49.6L47.923 111zm17.265 12.546c-.654.055-1.29.11-1.97.166v-11.984h.136c.488 0 .973.003 1.46-.004.14-.004.211.022.226.181.026.281.07.558.11.85.156-.141.304-.288.46-.421 1.119-.939 2.682-1.039 3.847-.233.639.439 1.02 1.082 1.212 1.814.358 1.355.35 2.719-.167 4.034-.569 1.455-1.67 2.242-3.23 2.379-.702.063-1.382-.033-2.088-.262v1.736c.004.576.004 1.152.004 1.744zm0-7.215c0 .687.007 1.378-.004 2.065-.004.166.048.251.207.284.288.063.57.163.861.192 1.183.119 2.03-.306 2.44-1.511.225-.668.254-1.363.192-2.054a4.624 4.624 0 00-.252-1.16c-.24-.668-.817-1.034-1.522-1.034-.736-.004-1.294.373-1.797.853a.455.455 0 00-.122.285c-.007.691-.003 1.385-.003 2.08zm-8.904 3.727v3.487c-.65.056-1.282.107-1.962.167v-11.988h1.796c.048.336.096.665.14.982.292-.225.573-.465.88-.665 1.094-.709 2.613-.631 3.585.174.554.458.902 1.057 1.075 1.744.318 1.256.318 2.519-.096 3.757-.51 1.514-1.57 2.397-3.163 2.597-.758.096-1.5.004-2.255-.255zm-.004-3.724c0 .695.004 1.389-.003 2.084 0 .133.044.199.162.244.436.162.887.232 1.353.229.872-.008 1.563-.466 1.903-1.264.2-.469.289-.964.307-1.466.026-.658.004-1.312-.225-1.944-.274-.753-.961-1.182-1.76-1.097-.654.067-1.153.418-1.615.846a.377.377 0 00-.129.303c.011.691.007 1.378.007 2.065zm59.516 5.734c.351.04.684.096 1.016.118.655.041 1.161-.262 1.512-.787.222-.332.373-.713.547-1.079.026-.055.011-.144-.015-.21-.491-1.349-.983-2.693-1.478-4.042-.518-1.415-1.035-2.833-1.556-4.248a.955.955 0 01-.026-.085h2.099c.662 2.161 1.482 4.278 2.044 6.494.122-.432.229-.853.362-1.27.337-1.046.684-2.084 1.028-3.126l.654-1.972c.026-.082.044-.141.155-.141.61.004 1.22.004 1.859.004-.07.203-.133.391-.199.576-.976 2.686-1.948 5.372-2.928 8.054-.292.794-.632 1.57-1.186 2.231-.606.724-1.39 1.068-2.317 1.116-.617.029-1.227-.019-1.822-.204a.585.585 0 01-.1-.037c.122-.469.236-.938.351-1.392zm-27.331-6.927c-.004-.465-.019-.938-.252-1.367-.284-.524-.776-.713-1.334-.754-.924-.066-1.789.182-2.632.518-.055.022-.114.044-.192.077-.074-.329-.144-.65-.214-.971-.103-.477-.103-.477.362-.636a8.18 8.18 0 012.842-.447c.68.015 1.353.104 1.956.447.742.421 1.12 1.105 1.278 1.914.082.399.115.816.119 1.223.014 1.156 0 2.312.007 3.469.004.428.033.857.052 1.285.003.085 0 .17 0 .266h-1.837c-.044-.347-.089-.691-.133-1.053-.444.466-.946.828-1.541 1.027-.865.288-1.73.307-2.565-.096-.858-.414-1.239-1.152-1.29-2.076-.026-.499.04-.983.28-1.426.333-.617.854-1.001 1.52-1.204a5.604 5.604 0 011.689-.248c.617.004 1.238.034 1.885.052zm0 1.182c-.385-.026-.74-.066-1.094-.07a7.496 7.496 0 00-.995.055c-.569.071-1.05.303-1.23.898-.24.802.033 1.722 1.208 1.677.806-.029 1.475-.388 2.044-.938a.188.188 0 00.063-.126c.004-.491.004-.982.004-1.496zm19.887-.114h-5.484c0 1.444.706 2.456 2.04 2.604.928.1 1.807-.1 2.665-.425.062-.022.125-.044.21-.077.137.428.274.846.396 1.267.011.033-.082.122-.141.148a6.844 6.844 0 01-1.999.55c-.835.096-1.671.111-2.488-.118-1.408-.396-2.239-1.341-2.539-2.752-.255-1.22-.225-2.435.278-3.595.598-1.382 1.666-2.128 3.178-2.235.706-.052 1.39.03 2.022.366.902.48 1.415 1.26 1.689 2.224.185.665.207 1.341.173 2.043zm-1.877-1.264c-.041-.24-.063-.462-.115-.672-.273-1.105-1.334-1.633-2.343-1.153-.75.359-.983 1.06-1.12 1.825h3.578zm-6.357 3.75l.188 1.127c.048.291.045.291-.251.365-.528.133-1.064.2-1.604.115-.865-.133-1.386-.661-1.5-1.526a5.612 5.612 0 01-.056-.787c-.004-3.188-.004-6.372-.004-9.56 0-.263 0-.263.26-.285.557-.048 1.112-.096 1.7-.144v9.801c0 .1.007.196.018.295.063.521.37.758.89.676.111-.022.226-.051.359-.077zM94.026 108v9.793c0 .104.004.211.019.311.073.521.384.746.905.657.115-.018.225-.04.355-.066.074.447.144.875.207 1.304.007.04-.048.118-.089.129-.754.222-1.515.329-2.277.044-.54-.203-.839-.624-.968-1.171a3.316 3.316 0 01-.092-.764c-.008-3.273-.004-6.543-.004-9.816 0-.255 0-.255.248-.277.558-.048 1.112-.096 1.696-.144zm15.867 3.735h1.788c.048.513.096 1.023.148 1.544.207-.281.392-.554.603-.813.643-.794 1.478-1.049 2.469-.838.037.007.07.022.107.037a848.66 848.66 0 00-.244 1.681c-.688-.159-1.334-.111-1.889.325-.295.232-.536.535-.806.805-.177.177-.221.384-.218.632.012 1.603.004 3.21.004 4.813v.244h-1.959c-.003-2.804-.003-5.608-.003-8.43z" fill="#fff"/><rect x="8" y="97" width="26" height="26" rx="5.5" fill="#BD1A2F"/><g clip-path="url(#clip0)" fill="#fff"><path d="M23.919 109.798c-.236.673-.46 1.308-.674 1.947-.053.156-.118.221-.29.213-.36-.015-.368 0-.49-.35-.35-.989-.692-1.978-1.039-2.966-.007-.016 0-.038 0-.092.225 0 .45-.007.674.008.038.004.087.08.102.129.214.643.42 1.286.628 1.925.016.049.035.095.065.175.084-.248.164-.464.236-.681.152-.46.308-.921.453-1.385.038-.129.095-.182.24-.178.407.003.407-.004.532.376.206.616.407 1.233.624 1.894.156-.486.3-.932.445-1.377.08-.251.156-.505.248-.753.019-.057.091-.125.144-.129.202-.015.404-.008.636-.008-.084.24-.156.461-.232.677-.3.864-.605 1.727-.902 2.594-.034.103-.084.137-.186.137-.446.012-.446.016-.594-.418-.171-.502-.346-1.004-.521-1.502a2.805 2.805 0 01-.1-.236zm1.385-9.794a3.848 3.848 0 01-.4 1.837c-.689 1.392-1.807 2.225-3.345 2.434-2.271.308-4.368-1.244-4.779-3.499a4.473 4.473 0 01-.06-.639c0-.042.068-.126.106-.129.167-.016.338-.008.468-.008.095.426.137.841.277 1.217.537 1.43 1.58 2.248 3.102 2.427 1.54.178 2.998-.719 3.637-2.054.217-.449.347-.921.347-1.423 0-.118.034-.175.163-.167.149.008.3.004.484.004zm-11.389 11.939h-.678V110.6h-1.51v1.354c-.221 0-.423.012-.62-.007-.039-.004-.096-.114-.096-.179-.007-.685-.004-1.365-.004-2.05 0-.331.008-.658-.003-.989-.004-.145.05-.19.186-.183.168.008.339.004.533.004v1.347h1.51v-1.328h.685c-.003 1.122-.003 2.241-.003 3.374zm13.755-1.419v.757h1.842v.662h-2.534v-3.377c.057-.004.118-.012.179-.012.704 0 1.408.004 2.112-.004.152 0 .22.038.209.202-.012.137-.004.278-.004.437h-1.8v.658h.75c.502 0 .498 0 .487.51-.004.125-.046.164-.168.164-.285-.008-.57-.004-.856 0-.072-.008-.14 0-.217.003zm-12.104-1.974v.286c.008.62-.007 1.24.034 1.856.027.422.316.627.758.62.395-.008.666-.229.689-.636.034-.616.022-1.236.03-1.856v-.266c.217 0 .418-.004.62.004.034 0 .095.068.095.106-.015.75.012 1.507-.068 2.252-.069.654-.563 1.035-1.226 1.076-.479.031-.936-.034-1.29-.414-.281-.304-.353-.681-.36-1.069-.012-.593 0-1.19-.009-1.784 0-.133.042-.182.175-.175.18.008.354 0 .552 0zm6.126 3.404c-.235 0-.437.008-.639-.003-.053-.004-.122-.058-.144-.107-.095-.19-.18-.392-.27-.593-.468 0-.937-.004-1.405.004-.053 0-.121.053-.148.102-.08.152-.13.316-.213.464a.287.287 0 01-.194.13c-.187.019-.373.007-.598.007.145-.327.27-.62.4-.913.339-.768.677-1.532 1.012-2.305.061-.14.14-.182.297-.197.32-.035.468.076.594.384.4.973.84 1.932 1.263 2.894.015.034.023.069.046.133zm-2.286-1.361h.959c-.16-.377-.313-.731-.48-1.119-.167.388-.32.742-.48 1.119zm10.92-2.028H31v3.378h-.674v-3.378z"/></g><path d="M48.294 101.675c0 .696-.117 1.305-.352 1.826-.234.518-.566.913-.996 1.187-.43.273-.93.41-1.504.41-.56 0-1.056-.137-1.489-.41a2.763 2.763 0 01-1.01-1.177c-.238-.511-.36-1.102-.367-1.773v-.512c0-.684.119-1.288.357-1.812.237-.524.572-.924 1.005-1.201a2.71 2.71 0 011.495-.42c.57 0 1.07.138 1.504.415.436.273.771.672 1.005 1.196.235.521.352 1.128.352 1.822v.449zm-.933-.459c0-.843-.169-1.49-.508-1.939-.338-.452-.812-.678-1.42-.678-.593 0-1.06.226-1.402.678-.338.45-.512 1.075-.522 1.875v.523c0 .817.17 1.46.513 1.929.345.465.818.698 1.42.698.606 0 1.075-.22 1.407-.659.332-.443.503-1.076.512-1.9v-.527zm6.123-.767h-1.772V105h-.903v-4.551H49.07v-.732h4.414v.732zm2.525 2.3h-.66V105h-.908v-5.283h.909v2.236h.59l1.778-2.236h1.093l-2.09 2.539L58.988 105H57.84l-1.831-2.251zm8.218-.332c0 .804-.184 1.452-.552 1.943-.368.492-.866.738-1.494.738-.642 0-1.146-.204-1.514-.611v2.544h-.903v-7.314h.825l.044.586c.368-.456.879-.684 1.533-.684.635 0 1.136.24 1.504.718.371.478.557 1.144.557 1.997v.083zm-.904-.103c0-.595-.127-1.066-.38-1.411-.255-.345-.603-.517-1.045-.517-.547 0-.958.242-1.231.727v2.525c.27.481.684.722 1.24.722.433 0 .777-.171 1.03-.512.258-.345.386-.856.386-1.534zm1.817-.004c0-.518.1-.984.302-1.397.206-.413.489-.732.85-.957.365-.225.78-.337 1.245-.337.72 0 1.3.25 1.743.747.446.498.67 1.161.67 1.988v.063c0 .514-.1.977-.299 1.387a2.224 2.224 0 01-.844.952 2.326 2.326 0 01-1.26.342c-.716 0-1.297-.249-1.743-.747-.443-.498-.664-1.158-.664-1.978v-.063zm.908.107c0 .586.135 1.056.405 1.411a1.31 1.31 0 001.094.532 1.3 1.3 0 001.094-.537c.27-.361.405-.866.405-1.513 0-.58-.138-1.049-.415-1.407a1.304 1.304 0 00-1.094-.542c-.446 0-.806.178-1.079.533-.273.354-.41.862-.41 1.523zm8.452-2.7h.903V105H74.5v-3.853L72.064 105h-.904v-5.283h.904v3.857l2.436-3.857zm.244-1.924c0 .394-.135.711-.405.952-.267.238-.619.357-1.055.357-.436 0-.79-.12-1.06-.362-.27-.24-.405-.556-.405-.947h.738c0 .228.061.407.185.537.124.127.304.19.542.19.228 0 .405-.063.532-.19.13-.127.196-.306.196-.537h.732zm6.036 2.656h-1.773V105h-.904v-4.551h-1.738v-.732h4.414v.732zm2.68 4.649c-.716 0-1.299-.235-1.748-.703-.45-.472-.674-1.102-.674-1.89v-.166c0-.524.1-.991.298-1.401.202-.414.482-.736.84-.967a2.112 2.112 0 011.172-.352c.686 0 1.22.226 1.601.679.381.452.572 1.1.572 1.943v.376h-3.58c.013.521.165.943.454 1.265.294.319.665.478 1.114.478.319 0 .589-.065.81-.195.222-.13.415-.303.581-.518l.552.43c-.443.68-1.107 1.021-1.992 1.021zm-.112-4.737c-.365 0-.67.134-.918.401-.248.263-.4.634-.46 1.113h2.647v-.068c-.026-.459-.15-.814-.37-1.065-.222-.254-.522-.381-.9-.381zM89.134 105v-5.283h2.06c.703 0 1.242.124 1.617.371.377.244.566.604.566 1.079 0 .244-.073.465-.22.664-.146.195-.363.345-.65.449.32.075.575.222.767.44.196.218.293.478.293.781 0 .485-.179.856-.537 1.113-.355.257-.858.386-1.508.386h-2.388zm.903-2.319v1.591h1.494c.378 0 .66-.07.845-.21a.69.69 0 00.283-.59c0-.528-.387-.791-1.162-.791h-1.46zm0-.723h1.167c.847 0 1.27-.247 1.27-.742s-.4-.751-1.202-.767h-1.235v1.509z" fill="#fff"/><defs><linearGradient id="paint0_linear" x1="29.566" y1="10.864" x2="7.654" y2="10.864" gradientUnits="userSpaceOnUse"><stop stop-color="#FEE000"/><stop offset=".42" stop-color="#FBBC0E"/><stop offset=".78" stop-color="#FAA418"/><stop offset="1" stop-color="#F99B1C"/></linearGradient><linearGradient id="paint1_linear" x1="8.202" y1="17.502" x2=".701" y2="39.487" gradientUnits="userSpaceOnUse"><stop stop-color="#EF4547"/><stop offset="1" stop-color="#C6186D"/></linearGradient><linearGradient id="paint2_linear" x1="-1.31" y1="1.091" x2="4.821" y2="19.039" gradientUnits="userSpaceOnUse"><stop stop-color="#279E6F"/><stop offset=".04" stop-color="#2BA06F"/><stop offset=".46" stop-color="#53B26C"/><stop offset=".8" stop-color="#6BBD6A"/><stop offset="1" stop-color="#74C169"/></linearGradient><clipPath id="clip0"><path fill="#fff" transform="translate(11 100)" d="M0 0h20v12H0z"/></clipPath></defs></svg>