<svg width="24" height="24" viewBox="0 0 24 24" fill="none" xmlns="http://www.w3.org/2000/svg" aria-hidden="true" role="img" focusable="false" class="magritte-icon___rRr4Q_12-3-0 magritte-icon_initial-primary___KhLAU_12-3-0"><path fill-rule="evenodd" clip-rule="evenodd" d="M17.7442 23L14.9012 21.3477C13.9492 22.6036 12.6385 23.3184 10.9313 22.8609C8.51346 22.213 7.96006 19.9266 8.28147 17.5006L1.5 13.5594C1.50652 13.5473 10.4542 -3.03879 19.0007 1.92813C27.5502 6.89686 17.7442 23 17.7442 23ZM10.0015 18.5002C9.98626 18.9779 10.024 19.4084 10.1156 19.7743C10.2972 20.4997 10.6544 20.9232 11.3972 21.1222C12.1777 21.3314 12.8244 21.0259 13.328 20.4335L10.0015 18.5002ZM3.9713 12.9138L17.0633 20.5224C18.1891 18.3774 19.1618 16.1375 19.8533 13.8139C20.5129 11.5973 20.8629 9.39639 20.6258 7.54556C20.398 5.76773 19.6501 4.38746 18.0962 3.48439C16.5445 2.5826 14.9911 2.62223 13.3564 3.30887C11.6508 4.02534 9.93483 5.42805 8.35776 7.11122C6.69827 8.88235 5.25486 10.856 3.9713 12.9138Z" fill="currentColor"></path></svg>