<svg width="24" height="24" viewBox="0 0 24 24" fill="none" xmlns="http://www.w3.org/2000/svg" class="CInput__icon CInput__icon-eye"><path d="M20.249 21C20.1505 21.0001 20.0529 20.9808 19.9619 20.9431C19.8709 20.9053 19.7883 20.85 19.7188 20.7801L3.21883 4.28013C3.08411 4.13833 3.01012 3.94952 3.01262 3.75395C3.01512 3.55838 3.09393 3.37152 3.23223 3.23322C3.37053 3.09492 3.55739 3.01612 3.75296 3.01361C3.94853 3.01111 4.13734 3.0851 4.27914 3.21982L20.7791 19.7198C20.884 19.8247 20.9553 19.9583 20.9842 20.1038C21.0132 20.2492 20.9983 20.3999 20.9416 20.5369C20.8848 20.6739 20.7888 20.791 20.6655 20.8735C20.5422 20.9559 20.3973 20.9999 20.249 21ZM11.983 18C10.0382 18 8.16273 17.4243 6.40867 16.289C4.81164 15.2578 3.37398 13.7808 2.25086 12.0234V12.0197C3.18554 10.6804 4.20929 9.54794 5.30898 8.63482C5.31893 8.6265 5.32704 8.61621 5.33281 8.6046C5.33858 8.59298 5.34188 8.5803 5.34249 8.56735C5.34311 8.5544 5.34103 8.54146 5.3364 8.52935C5.33176 8.51724 5.32466 8.50623 5.31554 8.497L4.38179 7.56466C4.3652 7.54793 4.34292 7.53806 4.31938 7.53702C4.29584 7.53598 4.27277 7.54384 4.25476 7.55903C3.08664 8.54341 2.00242 9.75091 1.01664 11.1647C0.847037 11.4081 0.753631 11.6964 0.74829 11.9931C0.742948 12.2897 0.825911 12.5812 0.986638 12.8306C2.22461 14.7679 3.81789 16.3997 5.59351 17.5486C7.59273 18.8437 9.74429 19.5 11.983 19.5C13.1915 19.4962 14.3913 19.2971 15.5362 18.9103C15.5513 18.9052 15.5648 18.8963 15.5755 18.8845C15.5862 18.8726 15.5938 18.8583 15.5974 18.8427C15.601 18.8272 15.6006 18.811 15.5962 18.7957C15.5918 18.7803 15.5836 18.7664 15.5723 18.7551L14.5607 17.7436C14.5374 17.7208 14.5086 17.7046 14.4771 17.6964C14.4457 17.6881 14.4126 17.6883 14.3812 17.6967C13.5978 17.8984 12.792 18.0003 11.983 18ZM23.0071 11.1843C21.7668 9.26622 20.1576 7.63685 18.3538 6.472C16.3584 5.182 14.1552 4.49997 11.983 4.49997C10.7874 4.50209 9.60071 4.7054 8.47258 5.10138C8.45754 5.10661 8.44409 5.11558 8.43349 5.12745C8.42288 5.13931 8.41547 5.15368 8.41195 5.1692C8.40844 5.18473 8.40893 5.20089 8.41338 5.21616C8.41784 5.23144 8.42611 5.24534 8.43742 5.25653L9.44758 6.26669C9.47109 6.28981 9.50029 6.30631 9.53222 6.31454C9.56415 6.32277 9.59769 6.32244 9.62945 6.31357C10.3968 6.10599 11.1881 6.00055 11.983 5.99997C13.8904 5.99997 15.7602 6.58263 17.5401 7.73435C19.1671 8.78435 20.6216 10.26 21.7476 12C21.7484 12.001 21.7489 12.0024 21.7489 12.0037C21.7489 12.0051 21.7484 12.0064 21.7476 12.0075C20.9303 13.2942 19.9161 14.4446 18.742 15.4167C18.7319 15.425 18.7237 15.4353 18.7178 15.4469C18.712 15.4585 18.7086 15.4713 18.7079 15.4843C18.7073 15.4973 18.7093 15.5103 18.714 15.5225C18.7186 15.5346 18.7258 15.5457 18.7349 15.555L19.6677 16.4873C19.6842 16.504 19.7064 16.5139 19.7298 16.515C19.7533 16.5161 19.7763 16.5084 19.7943 16.4934C21.0477 15.438 22.1327 14.1975 23.0118 12.8147C23.1672 12.571 23.2493 12.2878 23.2485 11.9988C23.2477 11.7098 23.1639 11.4271 23.0071 11.1843Z" fill="currentColor"></path><path d="M11.999 7.5C11.6619 7.49982 11.3259 7.53756 10.9973 7.6125C10.9807 7.61595 10.9653 7.62383 10.9529 7.63531C10.9404 7.64679 10.9312 7.66144 10.9264 7.6777C10.9216 7.69395 10.9213 7.71121 10.9255 7.72763C10.9298 7.74405 10.9384 7.75901 10.9504 7.77094L16.2281 13.0472C16.24 13.0592 16.2549 13.0678 16.2714 13.072C16.2878 13.0763 16.305 13.076 16.3213 13.0711C16.3376 13.0663 16.3522 13.0572 16.3637 13.0447C16.3752 13.0323 16.383 13.0169 16.3865 13.0003C16.5368 12.3413 16.5366 11.6568 16.3861 10.9979C16.2355 10.3389 15.9385 9.72227 15.517 9.19384C15.0954 8.66542 14.5603 8.23874 13.9513 7.9455C13.3422 7.65226 12.675 7.49999 11.999 7.5ZM7.76993 10.9528C7.75801 10.9408 7.74304 10.9322 7.72662 10.9279C7.7102 10.9237 7.69295 10.924 7.67669 10.9288C7.66043 10.9337 7.64579 10.9428 7.63431 10.9553C7.62282 10.9677 7.61494 10.9831 7.61149 10.9997C7.4415 11.7423 7.46285 12.516 7.67353 13.2482C7.88422 13.9803 8.27734 14.647 8.81607 15.1857C9.35479 15.7245 10.0215 16.1176 10.7536 16.3283C11.4858 16.5389 12.2595 16.5603 13.0021 16.3903C13.0187 16.3869 13.0341 16.379 13.0465 16.3675C13.059 16.356 13.0681 16.3414 13.073 16.3251C13.0778 16.3088 13.0781 16.2916 13.0739 16.2752C13.0696 16.2588 13.061 16.2438 13.049 16.2319L7.76993 10.9528Z" fill="currentColor"></path></svg>