<svg width="16" height="16" viewBox="0 0 16 16" fill="none" xmlns="http://www.w3.org/2000/svg" focusable="false" aria-hidden="true" role="img" class="magritte-icon___rRr4Q_12-3-4 magritte-icon_initial-primary___KhLAU_12-3-4"><g><g><path fill-rule="evenodd" clip-rule="evenodd" d="M8.0598 6.57941L6.98577 6.83031C3.97351 7.53396 2.55813 9.38049 1.88692 11.0587C3.15643 10.3981 4.77737 9.77457 6.55895 9.62913L8.04772 9.50759L8.07266 11.0011C8.08347 11.6484 8.10931 12.0964 8.15568 12.4147C8.23222 12.3744 8.31874 12.3269 8.41669 12.2709C8.69647 12.1109 9.01969 11.9113 9.42074 11.6634L11.6904 10.2605C12.9246 9.49763 13.6938 9.01661 14.1787 8.58985C14.5975 8.22121 14.5965 8.07406 14.596 8.00463C14.596 8.00236 14.596 8.00018 14.596 7.99807C14.596 7.99597 14.596 7.99378 14.596 7.99152C14.5965 7.92209 14.5975 7.77494 14.1787 7.4063C13.6938 6.97953 12.9246 6.49851 11.6904 5.73566L9.42074 4.33276C9.01969 4.08487 8.69647 3.88529 8.41669 3.72529C8.31876 3.66929 8.23225 3.62173 8.15573 3.58148C8.09583 3.99354 8.0733 4.58579 8.06727 5.47649L8.0598 6.57941ZM6.74554 12.4233C6.81887 13.072 6.95894 13.4986 7.22647 13.7632C7.78796 14.3184 8.57758 13.8304 10.1568 12.8543L12.4265 11.4514C14.8062 9.98052 15.996 9.2451 15.996 7.99807C15.996 6.75105 14.8062 6.01563 12.4265 4.54478L10.1568 3.14188C8.57758 2.16576 7.78797 1.6777 7.22647 2.23299C6.75526 2.699 6.67948 3.66761 6.6673 5.46701C1.67694 6.63275 0.356063 10.5178 0.00867709 12.6435C-0.0825937 13.202 0.555579 13.5206 1.02388 13.2028C1.99718 12.5425 3.51753 11.6744 5.27701 11.2513C5.72829 11.1427 6.19531 11.0635 6.67286 11.0245C6.68209 11.577 6.70211 12.0391 6.74554 12.4233Z" fill="currentColor"></path></g></g></svg>