<svg width="32" height="23" viewBox="0 0 32 23" fill="none" xmlns="http://www.w3.org/2000/svg">
<path d="M27.91 17.6907L28.4231 17.9869L28.4557 18.0073C28.717 18.1698 28.893 18.4206 28.967 18.6964C29.0438 18.9839 29.011 19.3025 28.8494 19.5837L27.5077 21.9081L27.4874 21.9407C27.325 22.2021 27.0741 22.3781 26.7983 22.4521C26.5109 22.5292 26.1922 22.4957 25.911 22.3344L17.8671 17.6907H27.91ZM4.07465 16.6907L0.49755 16.6895C0.35045 16.6884 0.20505 16.6238 0.10695 16.4993C-0.0630502 16.2833 -0.0265501 15.9701 0.18915 15.8L4.52875 12.3647L7.41185 1.60409C7.52605 1.17549 7.79765 0.786889 8.14465 0.501989L8.17975 0.471689C8.54605 0.182789 9.00035 0.003088 9.45365 0.003088L10.8794 0.00248909C14.0922 -0.00651091 16.9788 -0.0148105 20.2908 0.416389C20.3237 0.418389 20.3571 0.423789 20.3902 0.432489C23.1189 1.16189 25.4852 2.78219 27.1574 4.96199C28.7048 6.97919 29.6581 9.47559 29.7559 12.1881C30.2905 12.2697 30.7738 12.4812 31.1517 12.7803C31.6747 13.1947 31.9999 13.7749 31.9999 14.4209C31.9999 15.067 31.6747 15.6472 31.1517 16.0616C30.6687 16.444 30.0137 16.6833 29.2985 16.6907H4.07465ZM8.88365 9.10969C9.52705 7.43379 10.6705 6.00319 12.1304 4.99999C13.5477 4.02659 15.2655 3.45629 17.1168 3.45629C18.9678 3.45629 20.6856 4.02659 22.1029 4.99999C23.5628 6.00319 24.7061 7.43379 25.3498 9.10969C25.4479 9.36619 25.7358 9.49489 25.9923 9.39679C26.2489 9.29869 26.3776 9.01069 26.2795 8.75389C25.5618 6.88529 24.2893 5.29109 22.6653 4.17569C21.0867 3.09119 19.1747 2.45619 17.1168 2.45619C15.0587 2.45619 13.1466 3.09119 11.568 4.17569C9.94405 5.29109 8.67155 6.88529 7.95385 8.75389C7.85575 9.01069 7.98445 9.29869 8.24095 9.39679C8.49755 9.49489 8.78555 9.36619 8.88365 9.10969Z" fill="#0F172A"/>
</svg>
