<svg width="16" height="16" viewBox="0 0 16 16" fill="none" xmlns="http://www.w3.org/2000/svg" aria-hidden="true" role="img" focusable="false" class="magritte-icon___rRr4Q_12-3-4 magritte-icon_initial-primary___KhLAU_12-3-4"><g><g><path fill-rule="evenodd" clip-rule="evenodd" d="M3.0091 2.92908C2.91458 3.01343 2.88996 3.06389 2.88451 3.07929C2.88557 3.26758 2.92508 3.36125 2.95417 3.40815C2.98293 3.45453 3.0331 3.50633 3.14145 3.55906C3.39746 3.68366 3.81181 3.74068 4.43647 3.77456C4.55573 3.78103 4.68202 3.78665 4.81335 3.79249C5.30815 3.81451 5.87434 3.8397 6.40402 3.92542C7.08416 4.03548 7.81818 4.25902 8.40286 4.78766C8.81899 5.1639 9.14047 5.61752 9.16242 6.1591C9.18497 6.71558 8.88424 7.14445 8.56482 7.4456C8.2451 7.74705 7.81961 8.00544 7.38165 8.23528C6.93715 8.46856 6.42953 8.69767 5.92354 8.92534L5.91316 8.93002C4.8781 9.39575 3.84452 9.86081 3.06187 10.4236C2.2727 10.9911 1.9 11.5418 1.9 12.1375C1.9 12.7513 2.18998 13.216 2.67453 13.5528C3.17756 13.9024 3.8811 14.0999 4.60007 14.0999V15.4999C3.65237 15.4999 2.65587 15.2447 1.87554 14.7024C1.07672 14.1472 0.5 13.2807 0.5 12.1375C0.5 10.8634 1.32552 9.94783 2.24452 9.28697C3.14303 8.64086 4.28545 8.12703 5.26924 7.68455L5.34908 7.64863C5.86304 7.41737 6.3308 7.20569 6.73107 6.99562C7.13789 6.78212 7.42659 6.59463 7.60442 6.42696C7.69027 6.34602 7.73182 6.2866 7.75049 6.2508C7.7592 6.23409 7.76204 6.22425 7.76292 6.22061C7.76368 6.21746 7.76357 6.21579 7.76357 6.21579C7.76357 6.21579 7.76326 6.20845 7.7589 6.19477C7.75437 6.18058 7.7449 6.15699 7.72519 6.12364C7.68446 6.05473 7.60643 5.95496 7.46394 5.82613C7.16811 5.55866 6.74325 5.39853 6.18038 5.30744C5.73907 5.23603 5.28252 5.21544 4.79955 5.19366C4.65572 5.18717 4.50946 5.18058 4.36065 5.17251C3.76822 5.14037 3.07553 5.08399 2.52878 4.81788C2.23574 4.67526 1.9606 4.46238 1.7644 4.14602C1.56892 3.83082 1.48449 3.46561 1.48449 3.07151C1.48449 2.56276 1.76371 2.16406 2.07696 1.88452C2.39163 1.60371 2.80741 1.37898 3.26005 1.1995C4.17067 0.838431 5.38111 0.60185 6.67329 0.526185C9.22316 0.376874 12.3715 0.84211 14.3262 2.5435L13.4071 3.59952C11.8649 2.2572 9.1721 1.78226 6.75513 1.92379C5.56388 1.99355 4.50946 2.21014 3.77608 2.50093C3.40672 2.64738 3.15571 2.79825 3.0091 2.92908ZM2.88389 3.08115C2.88358 3.08329 2.88316 3.08435 2.88316 3.08435L2.88389 3.08115Z" fill="currentColor"></path><path fill-rule="evenodd" clip-rule="evenodd" d="M6 12.8784V15.5H8.62158L14.9571 9.16452C15.681 8.44059 15.681 7.26687 14.9571 6.54295C14.2331 5.81902 13.0594 5.81902 12.3355 6.54295L6 12.8784ZM13.5073 8.63437L12.8656 7.99269L13.3254 7.5329C13.5026 7.3557 13.7899 7.3557 13.9671 7.5329C14.1443 7.71009 14.1443 7.99738 13.9671 8.17457L13.5073 8.63437ZM11.8757 8.98264L7.4 13.4583V14.1H8.04168L12.5174 9.62432L11.8757 8.98264Z" fill="currentColor"></path></g></g></svg>