<svg width="750" height="750" viewBox="0 0 750 750" fill="none" xmlns="http://www.w3.org/2000/svg">
<path fill-rule="evenodd" clip-rule="evenodd" d="M722.926 313.351C714.285 377.776 704.531 411.807 647.602 479.276C590.673 546.744 330.161 591.129 233.85 591.129C137.539 591.129 18.8465 516.863 26.3375 430.813C33.8285 344.764 72.9103 274.433 166.454 265.776C262.051 256.928 346.025 297.901 439.879 275.926C521.02 256.928 545.846 184.513 601.576 161.666C714.285 115.461 728.804 269.522 722.926 313.351Z" fill="#1E5CFB"/>
<path d="M664.94 344.816C661.756 350.214 621.446 377.524 596.994 381.566C592.263 382.348 587.096 382.617 582.986 380.146C580.558 378.686 578.748 376.41 577.03 374.158C573.1 369.01 569.352 363.723 565.793 358.311C563.923 355.467 562.068 352.499 561.433 349.155C559.75 340.3 566.888 332.347 573.942 326.737C590.157 313.84 609.143 304.444 629.231 299.376C632.787 298.479 636.558 297.719 640.081 298.738C645.799 300.392 649.218 306.178 651.399 311.716C653.581 317.254 655.283 323.312 659.643 327.363C660.639 328.289 668.124 339.419 664.94 344.816Z" fill="white"/>
<path fill-rule="evenodd" clip-rule="evenodd" d="M448.342 580.104C409.22 586.794 427.866 558.361 433.261 522.772C442.126 464.293 453.058 375.425 453.058 375.425C453.058 375.425 460.187 510.839 460.187 543.811C460.187 576.784 453.057 579.298 448.342 580.104Z" fill="white"/>
<path d="M406.541 547.886C407.539 557.303 408.592 566.919 412.594 575.501C410.41 556.067 408.227 536.632 406.044 517.198C405.774 514.798 405.854 511.743 408.062 510.764C409.93 532.709 412.715 554.576 416.408 576.289C416.846 578.867 412.974 580.34 410.8 578.888C408.625 577.436 407.93 574.609 407.435 572.042C403.832 553.331 401.85 534.309 401.521 515.258C396.933 516.161 393.716 520.609 392.788 525.192C391.86 529.774 392.755 534.507 393.648 539.097C396.525 553.87 399.403 568.643 402.28 583.416C403.625 590.326 404.971 597.465 403.486 604.347C397.776 578.276 393.185 551.961 389.731 525.497C345.917 552.289 289.462 557.271 241.633 538.567C231.187 534.481 220.813 529.068 213.913 520.225C208.478 513.258 205.578 504.609 204.058 495.905C198.662 464.992 209.72 433.46 224.729 405.902C230.424 395.445 236.91 384.555 236.45 372.657C236.292 368.56 235.409 364.025 237.801 360.695C238.14 361.312 222.141 246.872 228.559 221.558C244.01 160.617 294.201 152.364 326.337 153.116C347.899 153.62 484.574 180.782 504.32 217.719C530.274 266.264 524.763 307.079 520.154 333.991C518.782 342.005 453.076 374.834 453.058 375C449.302 409.92 424.094 486.011 402.953 514.057C404.149 525.333 405.345 536.61 406.541 547.886Z" fill="white"/>
<path fill-rule="evenodd" clip-rule="evenodd" d="M91.0617 405.798C78.7396 400.879 64.0553 402.337 52.9461 409.584C51.8706 410.286 50.3244 409.504 49.7919 408.336C49.2595 407.169 49.4587 405.811 49.731 404.558C53.2791 388.23 67.4134 375.737 83.1321 369.996C98.8508 364.254 116.044 364.238 132.753 365.22C134.411 365.317 136.144 365.446 137.559 366.316C138.973 367.185 139.924 369.043 139.219 370.544C132.647 384.541 127.695 399.295 124.496 414.42C123.977 416.872 121.436 418.5 118.933 418.704C116.43 418.909 113.978 417.985 111.706 416.916C104.628 413.584 98.3282 408.698 91.0617 405.798" fill="white"/>
<path d="M349.302 618.859C356.5 618.657 363.742 620.248 370.193 623.448C368.469 625.927 365.003 626.274 361.986 626.389C335.703 627.386 309.419 628.384 283.136 629.381C282.414 629.291 282.278 628.175 282.79 627.657C283.301 627.14 284.101 627.074 284.829 627.038C310.486 625.787 336.144 624.535 361.801 623.283C357.354 622.875 353.015 621.339 349.302 618.859ZM477.808 553.671C478.4 552.796 479.736 552.333 480.537 553.022C477.378 567.639 474.22 582.256 471.062 596.873C474.188 594.55 478.138 593.359 482.028 593.568C478.582 596.135 475.96 599.792 474.634 603.88C476.921 602.118 480.815 603.342 481.681 606.096C483.014 605.111 485.22 605.779 485.784 607.337C486.347 608.895 485.08 610.819 483.425 610.915C512.788 611.173 542.152 611.431 571.515 611.689C553.221 615.156 534.405 612.494 515.789 612.151C503.692 611.927 491.577 612.692 479.605 614.435C480.663 612.354 481.425 610.122 481.861 607.828C458.792 614.303 434.331 606.637 410.372 606.786C403.898 606.827 396.148 608.336 393.765 614.355C392.717 607.794 391.669 601.234 390.622 594.674C389.668 599.964 388.714 605.254 387.76 610.544C387.527 611.84 387.225 613.254 386.194 614.073C384.868 615.127 382.811 614.703 381.544 613.577C380.278 612.452 379.617 610.81 379.023 609.224C375.516 599.861 372.822 590.193 370.982 580.365C370.864 592.446 375.818 603.929 380.679 614.988C378.561 614.401 376.443 613.814 374.325 613.227C376.039 615.376 377.753 617.526 379.467 619.675C374.164 617.687 369.024 615.261 364.119 612.429C366.142 615.252 368.165 618.076 370.188 620.9C365.227 618.558 360.877 614.938 357.672 610.486C362.156 609.27 367.175 610.209 370.916 612.964C369.181 610.491 368.39 607.372 368.74 604.372C371.134 606.473 373.528 608.573 375.922 610.674C371.879 601.419 369.073 591.624 367.602 581.632C367.31 579.646 367.53 576.95 369.494 576.532C371.514 576.103 372.789 578.604 373.313 580.602C375.564 589.187 377.816 597.773 380.067 606.359C380.959 603.336 381.852 600.313 382.744 597.29C383.179 600.92 384.377 604.456 386.24 607.601C386.866 601.187 388.818 594.906 391.938 589.268C392.619 595.546 393.3 601.824 393.981 608.102C414.454 601.756 436.4 608.454 457.815 609.359C462.139 609.541 466.717 609.419 470.418 607.176C474.12 604.932 476.444 599.879 474.316 596.111C472.111 599.69 469.266 602.873 465.957 605.465C469.001 598.887 472.109 592.037 472.057 584.789C469.015 590.806 465.972 596.823 462.929 602.84C461.36 600.208 459.791 597.575 458.221 594.943C456.116 598.701 456.76 603.8 459.734 606.916C457.14 605.179 454.546 603.442 451.953 601.704C451.56 602.757 451.167 603.81 450.774 604.862C448.243 604.058 446.189 601.897 445.513 599.329C448.159 598.256 451.361 598.698 453.619 600.446C455.279 596.443 456.94 592.439 458.6 588.436C459.759 591.787 460.917 595.139 462.076 598.49C470.926 586.379 476.205 571.692 477.092 556.719C477.155 555.664 477.216 554.547 477.808 553.671ZM477.961 606.944C477.627 605.874 475.808 605.788 475.375 606.823L475.119 606.727C474.796 607.107 474.794 607.721 475.114 608.104C476.137 607.951 477.122 607.55 477.961 606.944ZM237.8 360.695C240.435 365.489 241.439 371.161 240.609 376.568C285.968 374.615 331.394 374.222 376.78 375.389C377.309 377.475 374.287 378.445 372.134 378.413C329.779 377.781 287.403 378.503 245.094 380.576C243.755 380.642 242.348 380.729 241.212 381.443C240.018 382.193 239.321 383.509 238.679 384.766C226.671 408.261 214.624 432.098 208.82 457.837C205.835 471.074 204.692 485.56 210.809 497.672C213.13 502.267 216.412 506.325 220.077 509.94C239.751 529.346 269.213 535.294 296.843 534.83C314.478 534.534 332.074 531.999 349.075 527.306C367.099 522.33 385.074 514.486 397.376 500.405C404.601 492.137 409.512 482.123 413.812 472.02C422.023 452.729 428.321 432.624 432.583 412.096C435.253 412.658 435.29 416.432 434.674 419.089C427.054 451.965 418.196 487.007 393.096 509.566C370.427 529.94 338.481 536.259 308.049 537.963C290.47 538.948 272.614 538.639 255.587 534.158C238.561 529.677 222.303 520.712 211.494 506.815C214.646 518.835 225.326 527.414 236.444 532.966C265.636 547.543 300.107 546.772 332.34 541.705C353.812 538.33 375.851 532.79 392.561 518.891C406.844 507.01 415.947 490.041 422.798 472.772C430.382 453.656 435.644 433.62 438.429 413.244C440.164 412.149 441.448 415.214 441.229 417.254C437.473 452.174 424.094 486.011 402.953 514.057L406.541 547.886C407.539 557.303 408.592 566.919 412.593 575.501C410.41 556.067 408.227 536.632 406.043 517.197C405.774 514.797 405.854 511.743 408.062 510.764C409.93 532.709 412.715 554.576 416.408 576.289C416.846 578.867 412.974 580.34 410.799 578.888C408.625 577.436 407.93 574.609 407.435 572.041C403.832 553.331 401.85 534.309 401.521 515.258C396.933 516.162 393.716 520.609 392.788 525.192C391.859 529.774 392.754 534.507 393.648 539.097C396.525 553.87 399.403 568.643 402.28 583.416C403.625 590.326 404.971 597.466 403.486 604.347C397.776 578.276 393.185 551.96 389.731 525.496C345.917 552.288 289.462 557.271 241.633 538.567C231.187 534.481 220.812 529.068 213.913 520.225C208.478 513.259 205.578 504.609 204.058 495.905C198.662 464.993 209.72 433.461 224.729 405.902C230.424 395.446 236.91 384.554 236.451 372.656C236.292 368.56 235.408 364.025 237.8 360.695ZM453.59 418.079C454.505 416.989 456.427 417.489 457.226 418.666C458.025 419.844 458.026 421.37 458 422.792C457.216 465.143 457.731 507.576 461.786 549.739C462.755 559.813 463.915 570.077 461.792 579.972C461.045 580.513 460.296 579.278 460.187 578.361C455.102 535.619 454.336 492.495 453.575 449.458C453.404 439.787 453.233 430.116 453.062 420.444C453.047 419.618 453.059 418.712 453.59 418.079ZM430.887 337.3C417.899 343.425 404.556 349.806 394.879 360.416C393.591 361.829 392.352 363.35 391.715 365.152C389.689 370.889 394.286 376.711 398.791 380.799C419.547 399.636 446.201 411.878 474.014 415.351C474.517 412.142 477.055 409.546 479.97 408.113C482.885 406.681 486.166 406.219 489.383 405.777C500.772 404.217 512.982 402.816 523.241 408.002C525.79 409.291 526.005 413.149 524.318 415.454C522.63 417.759 519.744 418.82 516.975 419.524C504.74 422.632 491.866 421.118 479.335 419.586C476.258 419.21 475.15 423.674 475.966 426.665C477.62 432.722 482.011 437.753 487.181 441.315C492.352 444.876 498.296 447.127 504.226 449.19C518.68 454.216 533.455 458.322 548.43 461.475C554.637 462.781 561.063 463.997 566.353 467.497C566.05 468.921 564.076 469.033 562.639 468.797C540.891 465.217 519.5 459.468 498.888 451.66C492.232 449.139 485.525 446.323 480.169 441.635C474.814 436.947 470.951 430.03 471.596 422.943C471.741 421.349 471.659 419.117 470.072 418.915C443.602 415.553 418.195 404.232 397.996 386.798C391.665 381.334 385.339 373.695 387.238 365.551C388.007 362.253 390.065 359.408 392.298 356.861C402.042 345.751 416.166 338.591 430.887 337.3ZM519.674 410.479C510.311 407.38 500.134 408.678 490.362 410.009C485.866 410.621 480.702 411.678 478.588 415.694C482.939 415.344 487.333 415.542 491.634 416.282C500.536 417.815 509.777 417.343 518.476 414.911C519.302 414.68 520.155 414.415 520.781 413.828C521.407 413.242 521.728 412.24 521.288 411.504C520.953 410.945 520.293 410.683 519.674 410.479ZM299.939 321.775C300.063 323.238 298.366 324.094 296.971 324.555C281.178 329.776 266.184 337.404 252.665 347.094C240.633 355.717 229.061 366.29 214.505 368.983C210.232 369.773 207.477 373.778 204.643 377.073C195.12 388.147 180.693 393.545 166.698 397.722C157.154 400.57 146.517 402.979 137.545 398.655C136.338 398.073 135.117 396.352 136.261 395.652C145.481 399.792 156.208 397.383 165.879 394.449C181.375 389.749 197.503 383.09 206.456 369.598C200.981 369.191 196.434 363.458 197.558 358.084C198.682 352.711 205.48 349.3 210.343 351.847C215.207 354.394 216.117 362.25 211.806 365.65C225.219 363.641 236.577 355.067 247.462 346.977C263.244 335.248 280.359 323.572 299.939 321.775ZM624.232 297.376C627.788 296.479 631.558 295.719 635.081 296.738C640.798 298.393 644.218 304.178 646.4 309.716C648.581 315.254 650.282 321.312 654.643 325.363C655.639 326.289 656.804 327.155 657.249 328.44C657.693 329.724 656.883 331.521 655.528 331.416C649.807 329.241 646.693 323.159 644.48 317.453C642.267 311.747 640.147 305.517 635.173 301.95C631.696 315.797 626.407 329.188 619.481 341.673C618.666 343.142 617.733 344.688 616.205 345.386C615.018 345.928 613.656 345.869 612.354 345.796C595.995 344.875 579.67 343.356 563.422 341.243C561.693 341.019 560.285 342.904 560.321 344.647C560.357 346.39 561.369 347.942 562.345 349.387C566.209 355.104 570.073 360.821 573.937 366.538C575.806 369.304 577.787 372.172 580.718 373.768C584.637 375.9 589.439 375.332 593.794 374.365C616.772 369.269 636.567 355.091 655.098 340.582C656.262 339.671 657.803 338.712 659.109 339.406C660.248 340.012 660.477 341.644 659.94 342.817C659.403 343.989 658.325 344.808 657.289 345.575C637.374 360.328 616.446 375.524 591.995 379.566C587.263 380.348 582.096 380.616 577.986 378.146C575.558 376.686 573.748 374.41 572.03 372.158C568.1 367.01 564.351 361.723 560.792 356.312C558.922 353.468 557.068 350.498 556.433 347.154C554.751 338.3 561.888 330.347 568.942 324.736C585.157 311.84 604.143 302.445 624.232 297.376ZM254.063 178.949C282.391 159.642 316.929 147.888 350.998 151.704C362.495 152.992 373.724 156.001 384.86 159.141C419.695 168.963 454.528 180.346 485.333 199.344C488.007 200.993 491.004 203.435 490.504 206.536C452.08 184.089 408.88 171.386 366.169 158.891C394.737 170.397 425.648 183.975 439.613 211.425C445.522 223.04 447.767 236.134 449.526 249.047C454.756 287.439 456.353 326.326 454.292 365.018C470.892 356.95 487.492 348.881 504.091 340.814C508.378 338.73 512.877 336.463 515.465 332.461C517.889 328.714 518.246 324.038 518.485 319.582C519.883 293.488 519.615 267.305 517.683 241.245C523.258 265.335 525.729 290.142 525.017 314.859C524.824 321.551 524.239 328.686 520.154 333.99C517.185 337.844 512.741 340.221 508.434 342.484C493.053 350.564 477.672 358.645 462.291 366.725C444.465 376.089 422.998 378.283 403.647 372.719C417.49 371.998 431.333 371.278 445.175 370.558C446.305 370.499 447.516 370.41 448.402 369.707C449.698 368.679 449.8 366.783 449.792 365.128C449.585 324.222 449.366 283.153 443.403 242.684C441.524 229.933 438.921 216.873 431.76 206.156C423.874 194.355 411.305 186.634 398.908 179.721C376.671 167.32 352.544 156.029 327.089 156.577C306.075 157.03 286.067 165.562 267.661 175.712C253.047 183.77 238.155 194.01 232.38 209.667C229.191 218.316 229.142 227.766 229.295 236.984C229.843 269.855 232.471 302.692 237.157 335.232C237.667 338.775 237.319 343.648 233.795 344.283C229.289 309.391 224.777 274.436 223.566 239.275C223.215 229.079 223.19 218.589 226.832 209.06C231.74 196.217 242.702 186.693 254.063 178.949ZM415.812 310.643C417.03 310.282 418.404 309.936 419.518 310.547C420.632 311.159 420.832 313.184 419.608 313.524C362.59 329.348 306.219 347.504 250.684 367.934C249.59 368.336 248.431 368.746 247.285 368.535C246.139 368.324 245.068 367.237 245.32 366.1C245.558 365.025 246.744 364.496 247.782 364.129C303.197 344.507 359.44 327.316 415.812 310.643ZM206.336 353.715C205.556 353.716 204.789 353.965 204.104 354.34C201.69 355.66 200.331 358.761 201.211 361.368C202.173 364.216 205.284 365.791 208.254 366.246C209.524 364.003 210.831 361.626 210.814 359.048C210.797 356.47 208.914 353.712 206.336 353.715ZM630.18 300.854C626.865 300.49 623.584 301.609 620.456 302.764C610.575 306.412 600.889 310.591 591.455 315.275C581.488 320.223 571.513 325.982 564.798 334.855C578.289 336.36 591.779 337.866 605.27 339.371C607.811 339.655 610.557 339.898 612.763 338.606C614.497 337.59 615.598 335.791 616.589 334.043C622.505 323.618 627.085 312.434 630.18 300.854ZM434.029 234.832C435.401 234.179 437.081 233.722 438.388 234.495C439.696 235.269 439.742 237.73 438.25 238.014C433.638 238.892 430.021 242.727 428.197 247.053C426.372 251.378 426.056 256.173 425.891 260.864C425.394 275.051 426.067 289.278 427.901 303.354C428.181 305.505 428.512 307.722 429.642 309.573C430.773 311.425 432.917 312.833 435.05 312.439C438.704 311.764 442.628 312.728 445.552 315.02C441.167 315.298 436.781 315.577 432.395 315.856C429.796 316.021 426.694 315.953 425.248 313.786C424.538 312.723 424.42 311.384 424.324 310.109C423.382 297.606 422.44 285.104 421.499 272.602C420.967 265.546 420.444 258.362 422.025 251.465C423.605 244.568 427.64 237.873 434.029 234.832ZM475.302 121.004C478.803 121.076 482.045 122.746 485.143 124.378C499.999 132.204 515.122 140.228 526.819 152.275C527.197 162.333 524.741 172.255 522.406 182.046C512.933 221.757 505.177 261.878 499.165 302.258C498.588 306.128 497.495 310.693 493.825 312.049C491.191 313.021 488.129 311.779 486.258 309.686C484.388 307.593 483.493 304.814 482.87 302.077C481.331 295.325 481.146 288.267 482.329 281.444C483.701 273.524 486.872 266.014 488.431 258.129C489.168 254.399 489.539 250.608 489.9 246.823C491.817 226.696 493.443 206.541 494.778 186.367C494.966 183.517 495.138 180.576 494.205 177.876C492.544 173.074 487.705 170.038 482.818 168.647C480.015 167.849 477.064 167.447 474.467 166.124C471.87 164.801 469.618 162.221 469.808 159.313C470.42 149.946 469.713 140.495 467.716 131.323C467.365 129.711 466.974 128.047 467.299 126.43C467.99 122.998 471.802 120.932 475.302 121.004ZM479.988 126.094C479.092 136.884 478.724 147.717 478.884 158.543C485.793 160.001 492.544 162.202 498.984 165.097C500.281 165.68 501.645 166.362 502.345 167.599C502.917 168.609 502.95 169.826 502.967 170.986C503.17 184.622 503.212 198.294 501.768 211.854C500.63 222.544 498.573 233.111 496.807 243.715C494.706 256.331 493.015 269.016 491.737 281.742C490.81 290.976 490.131 300.52 493.003 309.344C494.477 309.075 495.044 307.3 495.324 305.828L521.868 165.92C522.511 162.53 523.153 159.025 522.395 155.659C521.068 149.767 515.838 145.669 510.795 142.344C501.087 135.943 490.752 130.493 479.988 126.094ZM490.499 263.854C486.627 275.375 485.166 287.7 486.235 299.808C486.513 302.957 487.028 306.259 488.992 308.737C488.145 302.097 487.924 295.377 488.331 288.694C488.836 280.396 490.306 272.165 490.499 263.854ZM492.343 295.182C492.383 294.434 493.383 294.05 494.065 294.361C494.747 294.671 495.129 295.402 495.367 296.112C496.235 298.704 495.788 301.7 494.203 303.927C492.957 302.54 494.491 300.331 494.101 298.509C493.837 297.276 492.714 296.387 492.343 295.182ZM491.639 255.319C491.007 255.63 490.738 256.514 491.089 257.125L491.122 257.048C491.744 256.769 492.006 255.894 491.639 255.319ZM479.221 161.973C477.72 161.68 475.514 161.998 475.58 163.526C481.792 166.093 488.005 168.66 494.217 171.227C495.31 171.678 496.476 172.19 497.093 173.198C497.699 174.188 497.64 175.431 497.561 176.588C495.886 201.201 494.21 225.815 492.535 250.428C497.394 225.477 499.591 200.008 499.073 174.594C499.034 172.675 498.93 170.612 497.756 169.093C496.896 167.98 495.581 167.328 494.297 166.753C489.476 164.593 484.407 162.986 479.221 161.973ZM475.191 123.625C473.655 122.607 471.435 123.657 470.579 125.289C469.723 126.922 469.853 128.877 470.047 130.71C471.121 140.862 473.48 151.034 472.278 161.172C473.687 161.655 475.26 160.662 475.944 159.338C476.628 158.014 476.645 156.458 476.648 154.968C476.664 146.011 476.679 137.053 476.695 128.096C476.698 126.454 476.56 124.533 475.191 123.625Z" fill="#00160A"/>
<path fill-rule="evenodd" clip-rule="evenodd" d="M620.366 565.587C619.053 566.164 617.632 566.701 616.22 566.458C614.807 566.215 613.485 564.888 613.769 563.483C616.363 550.636 613.106 536.724 605.078 526.364C602.264 522.734 598.914 519.539 596.173 515.854C594.445 513.531 592.908 510.611 593.784 507.852C595.031 503.927 600.052 502.972 604.161 502.692C613.713 502.041 623.266 501.39 632.818 500.739C637.219 500.439 642.289 500.394 645.227 503.685C653.406 512.846 669.347 513.462 678.208 504.958C679.579 503.642 681.305 506.262 681.251 508.161C681.08 514.134 678.618 520.013 674.482 524.326C673.507 525.343 672.259 526.34 670.856 526.194C669.454 526.048 668.42 524.035 669.538 523.176C671.937 521.334 674.379 519.445 676.061 516.931C677.743 514.417 678.558 511.122 677.412 508.323C671.241 516.129 665.012 523.889 658.724 531.601C647.822 544.972 636.162 558.649 620.366 565.587M637.596 526.241C636.027 526.675 634.353 526.341 632.786 525.899C621.511 522.713 611.125 513.904 599.592 515.966C613.039 526.796 620.179 544.955 617.709 562.044C626.569 560.147 633.566 553.532 639.842 546.996C649.13 537.321 657.95 527.196 666.259 516.669C660.287 516.619 654.337 514.897 649.262 511.747C642.993 513.298 643.82 524.519 637.596 526.241M645.784 508.453C642.049 504.05 635.337 504.186 629.585 504.692C622.083 505.351 614.581 506.009 607.08 506.668C604.034 506.936 600.536 507.47 598.948 510.083C611.932 512.801 624.591 517.071 636.569 522.772C638.11 517.933 641.197 513.599 645.268 510.563C645.726 510.222 646.25 509.783 646.189 509.216C646.158 508.925 645.973 508.676 645.784 508.453V508.453Z" fill="#FFB61D"/>
<path fill-rule="evenodd" clip-rule="evenodd" d="M89.6081 403.458C78.3088 398.939 64.8435 400.279 54.6565 406.936C53.6703 407.58 52.2524 406.862 51.7642 405.79C51.276 404.718 51.4586 403.47 51.7083 402.319C54.9618 387.319 67.9229 375.842 82.3368 370.568C96.7506 365.293 112.517 365.278 127.839 366.18C129.359 366.27 130.948 366.388 132.245 367.187C133.542 367.985 134.415 369.693 133.768 371.072C127.741 383.93 123.201 397.484 120.267 411.379C119.791 413.632 117.461 415.126 115.166 415.314C112.871 415.502 110.622 414.654 108.539 413.672C102.048 410.611 96.2714 406.122 89.6081 403.458M90.8997 388.28C89.8927 389.098 88.3187 388.666 87.3712 387.78C86.4236 386.893 85.8837 385.667 85.1389 384.604C81.1437 378.905 71.9757 379.378 66.5413 383.727C61.1069 388.075 58.4772 394.945 56.0826 401.48C72.0257 394.555 91.6624 397.04 105.378 407.719C107.25 409.177 109.108 410.82 111.414 411.381C113.72 411.942 116.625 410.934 117.209 408.633C120.33 396.345 124.175 384.24 128.718 372.404C120 383.239 101.693 379.511 90.8997 388.28M87.4305 381.732C88.3258 382.857 89.9513 383.155 91.3664 382.901C92.7814 382.648 94.067 381.943 95.3855 381.37C99.9249 379.397 104.953 378.956 109.819 378.054C114.686 377.152 119.706 375.625 123.132 372.052C115.402 372.029 107.672 372.006 99.942 371.983C92.1737 371.959 83.8026 372.124 77.5619 376.75C81.361 376.889 85.063 378.758 87.4305 381.732Z" fill="#FFB61D"/>
<path fill-rule="evenodd" clip-rule="evenodd" d="M452.627 402.421C452.609 395.622 452.591 388.823 452.572 382.024C452.567 380.071 452.562 378.118 452.557 376.166C452.553 374.819 452.779 373.135 454.059 372.716C455.026 372.399 456.092 373.095 456.544 374.007C456.997 374.919 456.992 375.982 456.976 377.001C456.835 386.489 456.694 395.977 456.553 405.466C456.532 406.83 456.304 408.509 455.026 408.988C452.895 407.781 452.634 404.87 452.627 402.421H452.627Z" fill="#00160A"/>
<path fill-rule="evenodd" clip-rule="evenodd" d="M439.053 396.129C438.069 396.56 437.561 394.939 437.713 393.875C438.257 390.067 438.803 386.252 439.729 382.519C440.306 380.195 441.137 377.75 443.056 376.318C444.976 374.887 448.272 375.138 449.211 377.34C449.666 378.407 449.476 379.626 449.268 380.767C447.975 387.83 446.235 394.812 444.06 401.655C443.968 401.945 443.867 402.248 443.647 402.459C443.112 402.972 442.146 402.627 441.775 401.985C441.405 401.343 441.453 400.551 441.512 399.812C442.396 399.748 442.808 398.708 443.02 397.848C443.887 394.334 444.754 390.82 445.62 387.307C446.295 384.572 446.91 381.459 445.341 379.121C443.728 380.114 443.123 382.122 442.643 383.953C441.677 387.638 440.712 391.323 439.747 395.008C439.631 395.449 439.47 395.946 439.053 396.129L439.053 396.129Z" fill="#00160A"/>
</svg>
